<svg width="25" height="24" viewBox="0 0 25 24" fill="none" xmlns="http://www.w3.org/2000/svg">
<g id="bath">
<path id="Vector" d="M22.5 12H5.5V6.41001C5.49648 6.04986 5.59152 5.69559 5.77483 5.38556C5.95813 5.07552 6.22274 4.82151 6.54 4.65101C6.89105 4.46126 7.29094 4.38114 7.688 4.42101C7.48588 5.03294 7.4571 5.68888 7.60483 6.31616C7.75256 6.94345 8.07104 7.51759 8.525 7.97501L9.585 9.03501C9.67787 9.12799 9.78816 9.20175 9.90956 9.25207C10.031 9.3024 10.1611 9.3283 10.2925 9.3283C10.4239 9.3283 10.554 9.3024 10.6754 9.25207C10.7968 9.20175 10.9071 9.12799 11 9.03501L14.535 5.50001C14.7225 5.31249 14.8278 5.05818 14.8278 4.79301C14.8278 4.52785 14.7225 4.27354 14.535 4.08601L13.475 3.02601C12.8848 2.43824 12.104 2.08068 11.2734 2.01779C10.4428 1.9549 9.61701 2.19082 8.945 2.68301C8.33919 2.44627 7.6847 2.36114 7.03849 2.43503C6.39227 2.50892 5.7739 2.73959 5.23716 3.10698C4.70043 3.47436 4.26159 3.96733 3.95883 4.543C3.65607 5.11866 3.49856 5.75959 3.5 6.41001V12H2.5C2.23478 12 1.98043 12.1054 1.79289 12.2929C1.60536 12.4804 1.5 12.7348 1.5 13C1.5 13.2652 1.60536 13.5196 1.79289 13.7071C1.98043 13.8947 2.23478 14 2.5 14H3.5V17C3.50184 17.6184 3.69507 18.2211 4.05318 18.7254C4.41128 19.2296 4.91669 19.6106 5.5 19.816V21C5.5 21.2652 5.60536 21.5196 5.79289 21.7071C5.98043 21.8947 6.23478 22 6.5 22C6.76522 22 7.01957 21.8947 7.20711 21.7071C7.39464 21.5196 7.5 21.2652 7.5 21V20H17.5V21C17.5 21.2652 17.6054 21.5196 17.7929 21.7071C17.9804 21.8947 18.2348 22 18.5 22C18.7652 22 19.0196 21.8947 19.2071 21.7071C19.3946 21.5196 19.5 21.2652 19.5 21V19.816C20.0833 19.6106 20.5887 19.2296 20.9468 18.7254C21.3049 18.2211 21.4982 17.6184 21.5 17V14H22.5C22.7652 14 23.0196 13.8947 23.2071 13.7071C23.3946 13.5196 23.5 13.2652 23.5 13C23.5 12.7348 23.3946 12.4804 23.2071 12.2929C23.0196 12.1054 22.7652 12 22.5 12ZM9.94 4.44001C10.2215 4.1596 10.6027 4.00216 11 4.00216C11.3973 4.00216 11.7785 4.1596 12.06 4.44001L12.414 4.79301L10.293 6.91401L9.939 6.56101C9.65773 6.27955 9.49973 5.89792 9.49973 5.50001C9.49973 5.1021 9.65773 4.72048 9.939 4.43901L9.94 4.44001ZM19.5 17C19.5 17.2652 19.3946 17.5196 19.2071 17.7071C19.0196 17.8947 18.7652 18 18.5 18H6.5C6.23478 18 5.98043 17.8947 5.79289 17.7071C5.60536 17.5196 5.5 17.2652 5.5 17V14H19.5V17Z" fill="white"/>
</g>
</svg>
