<svg width="23" height="18" viewBox="0 0 23 18" fill="none" xmlns="http://www.w3.org/2000/svg">
<path d="M19.5 0.5H3.5C2.70435 0.5 1.94129 0.816071 1.37868 1.37868C0.81607 1.94129 0.5 2.70435 0.5 3.5V16.5C0.5 16.7652 0.605357 17.0196 0.792893 17.2071C0.98043 17.3946 1.23478 17.5 1.5 17.5H5.5C5.66471 17.4991 5.82665 17.4576 5.97145 17.3791C6.11625 17.3006 6.23941 17.1876 6.33 17.05L8.04 14.5H14.96L16.67 17.05C16.7606 17.1876 16.8838 17.3006 17.0285 17.3791C17.1733 17.4576 17.3353 17.4991 17.5 17.5H21.5C21.7652 17.5 22.0196 17.3946 22.2071 17.2071C22.3946 17.0196 22.5 16.7652 22.5 16.5V3.5C22.5 2.70435 22.1839 1.94129 21.6213 1.37868C21.0587 0.816071 20.2956 0.5 19.5 0.5ZM20.5 15.5H18.04L16.33 13C16.2454 12.8531 16.1248 12.7302 15.9796 12.6428C15.8344 12.5553 15.6694 12.5062 15.5 12.5H7.5C7.33529 12.5009 7.17335 12.5424 7.02855 12.6209C6.88375 12.6994 6.76059 12.8124 6.67 12.95L4.96 15.5H2.5V10.5H20.5V15.5ZM6.5 8.5V7.5C6.5 7.23478 6.60536 6.98043 6.79289 6.79289C6.98043 6.60536 7.23478 6.5 7.5 6.5H9.5C9.76522 6.5 10.0196 6.60536 10.2071 6.79289C10.3946 6.98043 10.5 7.23478 10.5 7.5V8.5H6.5ZM12.5 8.5V7.5C12.5 7.23478 12.6054 6.98043 12.7929 6.79289C12.9804 6.60536 13.2348 6.5 13.5 6.5H15.5C15.7652 6.5 16.0196 6.60536 16.2071 6.79289C16.3946 6.98043 16.5 7.23478 16.5 7.5V8.5H12.5ZM20.5 8.5H18.5V7.5C18.5 6.70435 18.1839 5.94129 17.6213 5.37868C17.0587 4.81607 16.2956 4.5 15.5 4.5H13.5C12.7599 4.50441 12.0476 4.78221 11.5 5.28C10.9524 4.78221 10.2401 4.50441 9.5 4.5H7.5C6.70435 4.5 5.94129 4.81607 5.37868 5.37868C4.81607 5.94129 4.5 6.70435 4.5 7.5V8.5H2.5V3.5C2.5 3.23478 2.60536 2.98043 2.79289 2.79289C2.98043 2.60536 3.23478 2.5 3.5 2.5H19.5C19.7652 2.5 20.0196 2.60536 20.2071 2.79289C20.3946 2.98043 20.5 3.23478 20.5 3.5V8.5Z" fill="white"/>
</svg>
