<svg width="25" height="24" viewBox="0 0 25 24" fill="none" xmlns="http://www.w3.org/2000/svg">
<g id="usd-circle">
<path id="Vector" d="M11.5 9H15.5C15.7652 9 16.0196 8.89464 16.2071 8.70711C16.3946 8.51957 16.5 8.26522 16.5 8C16.5 7.73478 16.3946 7.48043 16.2071 7.29289C16.0196 7.10536 15.7652 7 15.5 7H13.5V6C13.5 5.73478 13.3946 5.48043 13.2071 5.29289C13.0196 5.10536 12.7652 5 12.5 5C12.2348 5 11.9804 5.10536 11.7929 5.29289C11.6054 5.48043 11.5 5.73478 11.5 6V7C10.7044 7 9.94129 7.31607 9.37868 7.87868C8.81607 8.44129 8.5 9.20435 8.5 10C8.5 10.7956 8.81607 11.5587 9.37868 12.1213C9.94129 12.6839 10.7044 13 11.5 13H13.5C13.7652 13 14.0196 13.1054 14.2071 13.2929C14.3946 13.4804 14.5 13.7348 14.5 14C14.5 14.2652 14.3946 14.5196 14.2071 14.7071C14.0196 14.8946 13.7652 15 13.5 15H9.5C9.23479 15 8.98043 15.1054 8.7929 15.2929C8.60536 15.4804 8.5 15.7348 8.5 16C8.5 16.2652 8.60536 16.5196 8.7929 16.7071C8.98043 16.8946 9.23479 17 9.5 17H11.5V18C11.5 18.2652 11.6054 18.5196 11.7929 18.7071C11.9804 18.8946 12.2348 19 12.5 19C12.7652 19 13.0196 18.8946 13.2071 18.7071C13.3946 18.5196 13.5 18.2652 13.5 18V17C14.2957 17 15.0587 16.6839 15.6213 16.1213C16.1839 15.5587 16.5 14.7956 16.5 14C16.5 13.2044 16.1839 12.4413 15.6213 11.8787C15.0587 11.3161 14.2957 11 13.5 11H11.5C11.2348 11 10.9804 10.8946 10.7929 10.7071C10.6054 10.5196 10.5 10.2652 10.5 10C10.5 9.73478 10.6054 9.48043 10.7929 9.29289C10.9804 9.10536 11.2348 9 11.5 9ZM12.5 1C10.3244 1 8.19767 1.64514 6.38873 2.85383C4.57979 4.06253 3.16989 5.78049 2.33733 7.79048C1.50477 9.80047 1.28693 12.0122 1.71137 14.146C2.1358 16.2798 3.18345 18.2398 4.72183 19.7782C6.26021 21.3166 8.22022 22.3642 10.354 22.7886C12.4878 23.2131 14.6995 22.9952 16.7095 22.1627C18.7195 21.3301 20.4375 19.9202 21.6462 18.1113C22.8549 16.3023 23.5 14.1756 23.5 12C23.5 9.08262 22.3411 6.28473 20.2782 4.22183C18.2153 2.15893 15.4174 1 12.5 1ZM12.5 21C10.72 21 8.97992 20.4722 7.49987 19.4832C6.01983 18.4943 4.86628 17.0887 4.18509 15.4442C3.5039 13.7996 3.32567 11.99 3.67294 10.2442C4.0202 8.49836 4.87737 6.89471 6.13604 5.63604C7.39472 4.37737 8.99836 3.5202 10.7442 3.17293C12.49 2.82567 14.2996 3.0039 15.9442 3.68508C17.5887 4.36627 18.9943 5.51983 19.9832 6.99987C20.9722 8.47991 21.5 10.22 21.5 12C21.5 14.3869 20.5518 16.6761 18.864 18.364C17.1761 20.0518 14.887 21 12.5 21Z" fill="white"/>
</g>
</svg>
