<svg width="25" height="24" viewBox="0 0 25 24" fill="none" xmlns="http://www.w3.org/2000/svg">
<g id="eye on">
<path id="Vector" fill-rule="evenodd" clip-rule="evenodd" d="M12.3335 5.25C9.79864 5.25 7.57948 6.47437 5.69259 8.48704C5.04434 9.17851 4.48137 9.91683 4.00425 10.6556L3.82548 10.9387L3.67363 11.1906L3.54884 11.4085L3.45124 11.5891C3.43724 11.616 3.42439 11.6412 3.41268 11.6646C3.3071 11.8757 3.3071 12.1243 3.41268 12.3354L3.49663 12.4963L3.60785 12.696L3.82548 13.0613L4.00425 13.3444C4.48137 14.0832 5.04434 14.8215 5.69259 15.513C7.57948 17.5256 9.79864 18.75 12.3335 18.75C14.8683 18.75 17.0875 17.5256 18.9744 15.513C19.6227 14.8215 20.1856 14.0832 20.6627 13.3444L20.8415 13.0613L20.9934 12.8094L21.1182 12.5915L21.2158 12.4109C21.2297 12.384 21.2426 12.3588 21.2543 12.3354C21.3599 12.1243 21.3599 11.8757 21.2543 11.6646L21.1704 11.5037L21.0591 11.304L20.8415 10.9387L20.6627 10.6556C20.1856 9.91683 19.6227 9.17851 18.9744 8.48704C17.0875 6.47437 14.8683 5.25 12.3335 5.25ZM12.3335 6.75C14.3924 6.75 16.2514 7.77563 17.8801 9.51296C18.4623 10.134 18.9716 10.8019 19.4027 11.4694L19.5116 11.6407L19.6125 11.8049L19.727 12L19.6125 12.1951C19.5479 12.3021 19.4779 12.4142 19.4027 12.5306C18.9716 13.1981 18.4623 13.866 17.8801 14.487C16.2514 16.2244 14.3924 17.25 12.3335 17.25C10.2746 17.25 8.41564 16.2244 6.7869 14.487C6.20468 13.866 5.69539 13.1981 5.26431 12.5306L5.15544 12.3593L5.05445 12.1951L4.93925 12L5.05445 11.8049C5.11914 11.6979 5.18911 11.5858 5.26431 11.4694C5.69539 10.8019 6.20468 10.134 6.7869 9.51296C8.41564 7.77563 10.2746 6.75 12.3335 6.75ZM12.3335 9C10.6766 9 9.3335 10.3431 9.3335 12C9.3335 13.6569 10.6766 15 12.3335 15C13.9904 15 15.3335 13.6569 15.3335 12C15.3335 10.3431 13.9904 9 12.3335 9ZM12.3335 10.5C13.1619 10.5 13.8335 11.1716 13.8335 12C13.8335 12.8284 13.1619 13.5 12.3335 13.5C11.5051 13.5 10.8335 12.8284 10.8335 12C10.8335 11.1716 11.5051 10.5 12.3335 10.5Z" fill="white"/>
</g>
</svg>
