<svg width="12" height="20" viewBox="0 0 12 20" fill="none" xmlns="http://www.w3.org/2000/svg">
<path d="M3.92326 19.9948C3.92435 17.1259 3.92522 14.2571 3.92653 11.388C3.92653 11.2974 3.92326 11.2062 3.93197 11.1161C3.94046 11.0262 3.90389 11.0095 3.8214 11.0097C2.86395 11.0123 1.90628 11.0114 0.948821 11.0114C0.927056 11.0114 0.904855 11.0086 0.883525 11.0119C0.80517 11.0238 0.777746 10.9888 0.789064 10.9146C0.790588 10.9039 0.789282 10.8928 0.789282 10.8819C0.789282 9.78648 0.790588 8.69125 0.787105 7.5958C0.786888 7.49917 0.807565 7.46782 0.910732 7.46848C1.87189 7.47283 2.83304 7.47109 3.7942 7.47109C3.93632 7.47109 3.93589 7.47109 3.93654 7.33331C3.94177 6.36498 3.92022 5.39642 3.94851 4.42852C3.97115 3.65585 4.16551 2.92454 4.51659 2.23567C5.08705 1.11563 5.99184 0.433067 7.21918 0.174061C8.16945 -0.0263977 9.12451 -0.0553455 10.0846 0.0957056C10.4354 0.150989 10.7861 0.208014 11.1376 0.260251C11.2118 0.271351 11.2379 0.296599 11.2377 0.376478C11.2344 1.2978 11.2344 2.21891 11.2377 3.14023C11.2379 3.22512 11.2164 3.24949 11.1302 3.24884C10.5645 3.24492 9.99883 3.25624 9.43423 3.29041C8.72207 3.33351 8.22082 3.68589 7.95071 4.34995C7.78834 4.74891 7.74307 5.17224 7.73611 5.59753C7.72653 6.19216 7.73611 6.78701 7.73132 7.38185C7.73045 7.48154 7.78399 7.47152 7.84689 7.47152C8.88793 7.47109 9.92874 7.47131 10.9698 7.47131C11.0603 7.47131 11.0997 7.51534 11.088 7.60342C10.9406 8.7067 10.792 9.80977 10.6479 10.9135C10.6359 11.0049 10.5993 11.0212 10.5164 11.021C9.62773 11.0182 8.73927 11.021 7.85059 11.0169C7.7533 11.0164 7.73132 11.0432 7.73132 11.1381C7.73393 14.0906 7.73328 17.0428 7.73328 19.9953C7.70455 19.9968 7.6756 19.9998 7.64687 19.9998C6.43454 20.0001 5.22222 20.0001 4.00989 19.9998C3.98116 19.9998 3.95221 19.9968 3.92348 19.9953L3.92326 19.9948Z" fill="#FDFEFE"/>
</svg>
