<svg width="20" height="20" viewBox="0 0 20 20" fill="none" xmlns="http://www.w3.org/2000/svg">
<path d="M0.0168822 9.88121C0.0168822 8.64643 0.00113972 7.41164 0.0500143 6.17732C0.0904298 5.1526 0.199456 4.14151 0.635802 3.19809C1.32122 1.71658 2.46954 0.777624 4.03399 0.334698C5.03851 0.0501449 6.07216 0.0386312 7.10205 0.0210082C9.02836 -0.0118881 10.9554 -0.00178426 12.8819 0.0214781C13.7636 0.0322869 14.6471 0.0506149 15.5176 0.22614C16.9484 0.514688 18.115 1.21655 18.944 2.43254C19.5103 3.26318 19.7885 4.20096 19.8846 5.19325C20.039 6.78755 19.9925 8.38749 19.9965 9.98554C19.9995 11.2502 20.0101 12.5148 19.9565 13.779C19.9163 14.7275 19.8334 15.6696 19.4699 16.5589C18.7687 18.2752 17.4886 19.3147 15.6969 19.7362C14.6847 19.9745 13.6494 19.9766 12.6188 19.987C10.8652 20.0046 9.11131 20.0018 7.35746 19.9935C6.66617 19.9903 5.97229 19.9804 5.28453 19.9184C4.38152 19.8368 3.514 19.6077 2.72096 19.1397C2.24678 18.8598 1.83652 18.508 1.46832 18.1032C0.75329 17.3165 0.384381 16.3698 0.194052 15.3408C0.0253407 14.4289 0.0363853 13.5047 0.0201721 12.5836C0.00442889 11.6832 0.0168822 10.7821 0.0168822 9.88145V9.88121ZM18.1914 10.0175C18.1914 9.17018 18.2055 8.32287 18.1876 7.47602C18.1681 6.54811 18.1905 5.61362 17.9809 4.70122C17.6618 3.31299 16.7924 2.44382 15.4286 2.05588C14.7272 1.85639 14.0035 1.87378 13.2868 1.84206C11.8142 1.7772 10.34 1.81198 8.86646 1.80775C7.69723 1.80446 6.5273 1.79718 5.36206 1.91443C4.61038 1.99009 3.89936 2.19569 3.28748 2.66423C2.39646 3.34659 2.02309 4.29612 1.91477 5.3723C1.81678 6.3465 1.80809 7.32564 1.80879 8.30383C1.80997 10.0281 1.7806 11.7523 1.84145 13.4761C1.86119 14.0356 1.8774 14.5962 1.99301 15.1467C2.31962 16.7027 3.25224 17.6584 4.81387 17.9916C5.44783 18.1269 6.09237 18.1434 6.73572 18.1598C8.62656 18.2087 10.5179 18.2066 12.4089 18.1828C13.3023 18.1716 14.1999 18.1868 15.0839 18.0212C16.4822 17.7592 17.4576 16.9962 17.8958 15.611C18.0387 15.1592 18.1021 14.693 18.1298 14.2219C18.2121 12.8212 18.1996 11.4191 18.1914 10.017V10.0175Z" fill="#FEFDFE"/>
<path d="M4.87638 10.0983C4.804 7.29486 7.07362 4.91692 9.91304 4.87016C12.74 4.82364 15.07 7.06059 15.1316 9.91152C15.1927 12.7368 12.9423 15.0671 10.0982 15.131C7.32198 15.1933 4.9222 12.9847 4.87614 10.0983H4.87638ZM10.0185 6.67265C8.1693 6.67006 6.67627 8.14969 6.67228 9.9886C6.66828 11.8346 8.14933 13.3276 9.98706 13.3356C11.829 13.3436 13.3335 11.8364 13.3357 10.0187C13.3378 8.17201 11.857 6.67523 10.0188 6.67265H10.0185Z" fill="#FEFDFE"/>
<path d="M15.336 5.86246C14.6684 5.86246 14.1287 5.34011 14.1315 4.66151C14.1341 4.05128 14.5893 3.46408 15.3461 3.46572C16.0029 3.46713 16.5374 4.00381 16.5416 4.66198C16.5459 5.32531 16.0036 5.86528 15.3358 5.86246H15.336Z" fill="#FEFDFE"/>
</svg>
