<svg width="24" height="30" viewBox="0 0 24 30" fill="none" xmlns="http://www.w3.org/2000/svg">
<path fill-rule="evenodd" clip-rule="evenodd" d="M12 2.99998C9.45392 2.99998 7.01212 4.0114 5.21177 5.81175C3.41143 7.6121 2.4 10.0539 2.4 12.6C2.4 16.3176 4.81888 19.9251 7.47114 22.7247C8.77273 24.0986 10.0784 25.2233 11.06 26.005C11.4253 26.2959 11.7444 26.5382 12 26.7271C12.2556 26.5382 12.5747 26.2959 12.94 26.005C13.9216 25.2233 15.2273 24.0986 16.5289 22.7247C19.1811 19.9251 21.6 16.3176 21.6 12.6C21.6 10.0539 20.5886 7.6121 18.7882 5.81175C16.9879 4.0114 14.5461 2.99998 12 2.99998ZM12 28.2C11.3344 29.1984 11.3341 29.1982 11.3337 29.198L11.3303 29.1957L11.3223 29.1903L11.2948 29.1717C11.2714 29.1559 11.2381 29.1331 11.1955 29.1036C11.1102 29.0445 10.9878 28.9585 10.8333 28.847C10.5247 28.6241 10.0876 28.2986 9.56499 27.8825C8.5216 27.0516 7.12727 25.8514 5.72886 24.3753C2.98112 21.4749 0 17.2823 0 12.6C7.15256e-08 9.41738 1.26428 6.36513 3.51472 4.11469C5.76516 1.86426 8.8174 0.599976 12 0.599976C15.1826 0.599976 18.2348 1.86426 20.4853 4.11469C22.7357 6.36513 24 9.41738 24 12.6C24 17.2823 21.0189 21.4749 18.2711 24.3753C16.8727 25.8514 15.4784 27.0516 14.435 27.8825C13.9124 28.2986 13.4753 28.6241 13.1667 28.847C13.0122 28.9585 12.8898 29.0445 12.8045 29.1036C12.7619 29.1331 12.7286 29.1559 12.7052 29.1717L12.6777 29.1903L12.6697 29.1957L12.6663 29.198C12.6659 29.1982 12.6656 29.1984 12 28.2ZM12 28.2L12.6656 29.1984C12.2626 29.4672 11.7374 29.4672 11.3344 29.1984L12 28.2ZM12 10.2C10.6745 10.2 9.6 11.2745 9.6 12.6C9.6 13.9255 10.6745 15 12 15C13.3255 15 14.4 13.9255 14.4 12.6C14.4 11.2745 13.3255 10.2 12 10.2ZM7.2 12.6C7.2 9.94901 9.34903 7.79998 12 7.79998C14.651 7.79998 16.8 9.94901 16.8 12.6C16.8 15.2509 14.651 17.4 12 17.4C9.34903 17.4 7.2 15.2509 7.2 12.6Z" fill="white"/>
</svg>
