<svg width="24" height="24" viewBox="0 0 24 24" fill="none" xmlns="http://www.w3.org/2000/svg">
<g id="star unfilled">
<path id="Vector" fill-rule="evenodd" clip-rule="evenodd" d="M3.70067 9.3491L8.92885 8.58228L11.2664 3.83236C11.5665 3.22255 12.4335 3.22255 12.7336 3.83236L15.0703 8.58228L20.2993 9.3491C20.9382 9.44276 21.2111 10.1973 20.8161 10.6788L20.7518 10.7488L16.9691 14.4435L17.8622 19.6639C17.9716 20.3038 17.3374 20.7987 16.7575 20.567L16.6751 20.5289L12 18.063L7.32492 20.5289C6.75202 20.8311 6.08675 20.379 6.12715 19.7543L6.13781 19.6639L7.03004 14.4435L3.24818 10.7488C2.78568 10.297 3.00614 9.5254 3.60763 9.36799L3.70067 9.3491ZM13.7943 9.69547L12 6.04839L10.2057 9.69547C10.0866 9.93741 9.85656 10.1052 9.59039 10.1442L5.57627 10.7321L8.48031 13.5693C8.64916 13.7343 8.7377 13.9629 8.72669 14.1959L8.71582 14.2959L8.03057 18.3018L11.6192 16.4095C11.8278 16.2995 12.0719 16.2858 12.2894 16.3683L12.3808 16.4095L15.9686 18.3018L15.2842 14.2959C15.2443 14.0629 15.3068 13.8257 15.4523 13.6438L15.5197 13.5693L18.4229 10.7321L14.4096 10.1442C14.1767 10.1101 13.9715 9.97734 13.844 9.78261L13.7943 9.69547Z" fill="white"/>
</g>
</svg>
