<svg width="25" height="24" viewBox="0 0 25 24" fill="none" xmlns="http://www.w3.org/2000/svg">
<g id="target">
<path id="Vector" fill-rule="evenodd" clip-rule="evenodd" d="M21.4599 6.96661L20.6268 7.79978C21.3079 9.08917 21.6658 10.53 21.6658 12.0004C21.6658 16.9749 17.64 21 12.6661 21C7.69164 21 3.6665 16.9742 3.6665 12.0004C3.6665 7.02593 7.69233 3.00082 12.6661 3.00082C14.1365 3.00082 15.5775 3.35883 16.8668 4.03985L17.7 3.20667C18.1426 2.7642 18.9004 3.07964 18.9004 3.70394V5.76621H20.9628C21.5888 5.76621 21.9013 6.52523 21.4599 6.96661ZM19.2653 7.17246H18.1973C17.8089 7.17246 17.4941 6.8577 17.4941 6.46934V5.40133L16.1348 6.76061V8.53175H17.906L19.2653 7.17246ZM12.6661 19.5939C8.46948 19.5939 5.07276 16.1976 5.07276 12.0004C5.07276 7.80377 8.46893 4.40693 12.6661 4.40693C13.7596 4.40693 14.8334 4.64121 15.817 5.08973L14.9346 5.97221C14.8027 6.10404 14.7286 6.28285 14.7286 6.46934V8.9436L12.169 11.5033C11.8945 11.7778 11.8945 12.223 12.169 12.4975C12.4435 12.7721 12.8888 12.7722 13.1634 12.4975L15.723 9.938H18.1973C18.3837 9.938 18.5625 9.86384 18.6944 9.73214L19.577 8.84953C20.0255 9.83322 20.2597 10.907 20.2597 12.0004C20.2597 16.197 16.8635 19.5939 12.6661 19.5939ZM12.6661 17.5449C15.7235 17.5449 18.2107 15.0576 18.2107 12.0004C18.2107 11.612 17.8959 11.2973 17.5076 11.2973C17.1193 11.2973 16.8046 11.612 16.8046 12.0004C16.8046 14.2823 14.948 16.1387 12.6661 16.1387C10.3843 16.1387 8.52785 14.2823 8.52785 12.0004C8.52785 9.71855 10.3843 7.86213 12.6661 7.86213C13.0545 7.86213 13.3693 7.54737 13.3693 7.15901C13.3693 6.77064 13.0545 6.45588 12.6661 6.45588C9.60891 6.45588 7.12159 8.94319 7.12159 12.0004C7.12159 15.0576 9.60891 17.5449 12.6661 17.5449Z" fill="white"/>
</g>
</svg>
