<svg width="20" height="20" viewBox="0 0 20 20" fill="none" xmlns="http://www.w3.org/2000/svg">
<path d="M17.8148 3.74109C14.9335 0.149513 9.94423 -1.03997 5.80304 0.980929C2.2018 2.73835 0.289356 5.68647 0.0930511 9.68239C0.00652991 11.4479 0.447706 13.1144 1.29863 14.6681C1.37903 14.815 1.3974 14.9433 1.35128 15.1065C1.03744 16.2188 0.733798 17.334 0.426892 18.4484C0.287724 18.9546 0.148555 19.4609 0 20C0.0897862 19.9801 0.136312 19.9716 0.181613 19.9598C1.80429 19.5376 3.42738 19.1166 5.04884 18.6887C5.20352 18.6477 5.3284 18.6558 5.47328 18.7293C7.5049 19.7597 9.64834 20.08 11.8881 19.6635C16.2084 18.86 19.5122 15.2928 19.9452 10.9445C20.2117 8.2676 19.5073 5.8513 17.8148 3.74109ZM11.6714 17.9957C9.58671 18.4143 7.61672 18.057 5.78468 16.9816C5.60103 16.8741 5.4439 16.8465 5.23576 16.9037C4.30729 17.1578 3.37351 17.3941 2.39607 17.6486C2.53728 17.1335 2.66706 16.6597 2.79725 16.186C2.91928 15.743 3.03232 15.2969 3.16782 14.858C3.22332 14.6786 3.19394 14.5446 3.09354 14.3904C2.40749 13.3357 1.97203 12.1856 1.83449 10.9348C1.53942 8.24933 2.34872 5.93411 4.28076 4.04069C5.91854 2.4351 7.92281 1.66742 10.2197 1.69989C14.1838 1.75632 17.5944 4.71946 18.2078 8.61673C18.8979 13.002 16.0407 17.1185 11.6714 17.9957Z" fill="white"/>
<path d="M14.9784 12.4373C14.2813 12.0727 13.5887 11.6996 12.8859 11.3464C12.599 11.2027 12.4933 11.2527 12.2885 11.495C12.0395 11.7898 11.7771 12.0731 11.5281 12.3683C11.3739 12.5509 11.1861 12.5745 10.9764 12.5099C10.8735 12.4779 10.7743 12.4308 10.6776 12.3821C9.35286 11.7191 8.33338 10.7403 7.59632 9.45952C7.44164 9.19117 7.46654 8.97885 7.64978 8.75841C7.73671 8.65449 7.8318 8.55746 7.91832 8.45313C8.04321 8.30211 8.16932 8.15149 8.284 7.99276C8.39542 7.8385 8.39501 7.6688 8.32767 7.49099C8.09014 6.8658 7.85343 6.24021 7.6257 5.61096C7.5249 5.33207 7.3388 5.15385 7.05515 5.08402C6.58296 4.9671 6.14872 5.0418 5.78835 5.38647C4.91171 6.22519 4.67909 7.24294 4.9664 8.39548C5.1423 9.10145 5.5243 9.70797 5.90589 10.3181C7.27554 12.5091 9.13983 14.0656 11.6457 14.8207C12.357 15.0346 13.0561 15.0732 13.7544 14.7699C14.6074 14.4001 15.1355 13.805 15.1371 12.9102C15.1616 12.6752 15.1461 12.525 14.9784 12.4373Z" fill="white"/>
</svg>
